G04 ================== begin FILE IDENTIFICATION RECORD ==================*
G04 Layout Name:  PROIECT FINAL TIE.brd*
G04 Film Name:    SILKSCREEN_TOP*
G04 File Format:  Gerber RS274X*
G04 File Origin:  Cadence Allegro 17.2-S025*
G04 Origin Date:  Sat Aug 26 03:52:08 2023*
G04 *
G04 Layer:  USER PART NUMBER/SILKSCREEN_TOP*
G04 Layer:  TOLERANCE/SILKSCREEN_TOP*
G04 Layer:  REF DES/SILKSCREEN_TOP*
G04 Layer:  PACKAGE GEOMETRY/SILKSCREEN_TOP*
G04 Layer:  DEVICE TYPE/SILKSCREEN_TOP*
G04 Layer:  COMPONENT VALUE/SILKSCREEN_TOP*
G04 Layer:  BOARD GEOMETRY/SILKSCREEN_TOP*
G04 *
G04 Offset:    (0.00 0.00)*
G04 Mirror:    No*
G04 Mode:      Positive*
G04 Rotation:  0*
G04 FullContactRelief:  No*
G04 UndefLineWidth:     8.00*
G04 ================== end FILE IDENTIFICATION RECORD ====================*
%FSLAX25Y25*MOIN*%
%IR0*IPPOS*OFA0.00000B0.00000*MIA0B0*SFA1.00000B1.00000*%
%ADD10C,.005*%
%ADD11C,.008*%
%ADD12C,.006*%
%ADD13C,.00787*%
G75*
%LPD*%
G75*
G54D10*
G01X69094Y40000D02*
G03I-19094J0D01*
G01X157165Y47874D02*
Y32126D01*
X202835D01*
Y47874D01*
X157165D01*
G54D11*
G01X10148Y39407D02*
Y44407D01*
X11795Y40240D01*
X13442Y44407D01*
Y39407D01*
G01X16135Y44407D02*
X17655D01*
G01X16895D02*
Y39407D01*
G01X16135D02*
X17655D01*
G01X23388Y43990D02*
X23008Y44240D01*
X22565Y44407D01*
X22058D01*
X21488Y44157D01*
X21045Y43740D01*
X20728Y43240D01*
X20475Y42407D01*
X20412Y41657D01*
X20538Y40907D01*
X20728Y40407D01*
X21108Y39907D01*
X21552Y39574D01*
X21995Y39407D01*
X22438D01*
X22882Y39574D01*
X23262Y39824D01*
X23578Y40157D01*
G01X27095Y39407D02*
Y44407D01*
X26335Y43407D01*
G01Y39407D02*
X27855D01*
G01X31193Y91283D02*
X30813Y91533D01*
X30370Y91700D01*
X29863D01*
X29293Y91450D01*
X28850Y91033D01*
X28533Y90533D01*
X28280Y89700D01*
X28217Y88950D01*
X28343Y88200D01*
X28533Y87700D01*
X28913Y87200D01*
X29357Y86867D01*
X29800Y86700D01*
X30243D01*
X30687Y86867D01*
X31067Y87117D01*
X31383Y87450D01*
G01X34900Y86700D02*
Y91700D01*
X34140Y90700D01*
G01Y86700D02*
X35660D01*
G01X14983Y126500D02*
Y131500D01*
X16567D01*
X17073Y131250D01*
X17390Y130917D01*
X17517Y130250D01*
X17390Y129583D01*
X17010Y129167D01*
X16567Y128917D01*
X14983D01*
G01X16567D02*
X17517Y126500D01*
G01X21350D02*
Y131500D01*
X20590Y130500D01*
G01Y126500D02*
X22110D01*
G01X59110Y66800D02*
Y61800D01*
G01X57653Y66800D02*
X60567D01*
G01X64210Y61800D02*
Y66800D01*
X63450Y65800D01*
G01Y61800D02*
X64970D01*
G01X54583Y94300D02*
Y99300D01*
X56167D01*
X56673Y99050D01*
X56990Y98717D01*
X57117Y98050D01*
X56990Y97383D01*
X56610Y96967D01*
X56167Y96717D01*
X54583D01*
G01X56167D02*
X57117Y94300D01*
G01X61710D02*
Y99300D01*
X59367Y95717D01*
X62533D01*
G01X34283Y126700D02*
Y131700D01*
X35867D01*
X36373Y131450D01*
X36690Y131117D01*
X36817Y130450D01*
X36690Y129783D01*
X36310Y129367D01*
X35867Y129117D01*
X34283D01*
G01X35867D02*
X36817Y126700D01*
G01X39447Y130867D02*
X39827Y131367D01*
X40270Y131617D01*
X40777Y131700D01*
X41410Y131533D01*
X41853Y131117D01*
X41980Y130617D01*
X41917Y130117D01*
X41663Y129700D01*
X40397Y128867D01*
X39827Y128283D01*
X39447Y127450D01*
X39320Y126700D01*
X41980D01*
G01X62593Y151283D02*
X62213Y151533D01*
X61770Y151700D01*
X61263D01*
X60693Y151450D01*
X60250Y151033D01*
X59933Y150533D01*
X59680Y149700D01*
X59617Y148950D01*
X59743Y148200D01*
X59933Y147700D01*
X60313Y147200D01*
X60757Y146867D01*
X61200Y146700D01*
X61643D01*
X62087Y146867D01*
X62467Y147117D01*
X62783Y147450D01*
G01X64907Y147700D02*
X65287Y147117D01*
X65793Y146783D01*
X66363Y146700D01*
X66870Y146783D01*
X67377Y147200D01*
X67693Y147700D01*
X67757Y148200D01*
X67630Y148783D01*
X67187Y149200D01*
X66743Y149367D01*
X66173D01*
G01X66743D02*
X67123Y149617D01*
X67440Y150033D01*
X67567Y150533D01*
X67440Y151033D01*
X67123Y151450D01*
X66553Y151700D01*
X65983Y151617D01*
X65413Y151283D01*
G01X105000Y40000D02*
G03I-10000J0D01*
G01X73983Y89000D02*
Y94000D01*
X75567D01*
X76073Y93750D01*
X76390Y93417D01*
X76517Y92750D01*
X76390Y92083D01*
X76010Y91667D01*
X75567Y91417D01*
X73983D01*
G01X75567D02*
X76517Y89000D01*
G01X78957Y90000D02*
X79337Y89417D01*
X79843Y89083D01*
X80413Y89000D01*
X80920Y89083D01*
X81427Y89500D01*
X81743Y90000D01*
X81807Y90500D01*
X81680Y91083D01*
X81237Y91500D01*
X80793Y91667D01*
X80223D01*
G01X80793D02*
X81173Y91917D01*
X81490Y92333D01*
X81617Y92833D01*
X81490Y93333D01*
X81173Y93750D01*
X80603Y94000D01*
X80033Y93917D01*
X79463Y93583D01*
G01X93443Y56183D02*
X93063Y56433D01*
X92620Y56600D01*
X92113D01*
X91543Y56350D01*
X91100Y55933D01*
X90783Y55433D01*
X90530Y54600D01*
X90467Y53850D01*
X90593Y53100D01*
X90783Y52600D01*
X91163Y52100D01*
X91607Y51767D01*
X92050Y51600D01*
X92493D01*
X92937Y51767D01*
X93317Y52017D01*
X93633Y52350D01*
G01X95947Y55767D02*
X96327Y56267D01*
X96770Y56517D01*
X97277Y56600D01*
X97910Y56433D01*
X98353Y56017D01*
X98480Y55517D01*
X98417Y55017D01*
X98163Y54600D01*
X96897Y53767D01*
X96327Y53183D01*
X95947Y52350D01*
X95820Y51600D01*
X98480D01*
G01X90000Y80000D02*
Y110000D01*
X130000D01*
Y80000D01*
X90000D01*
G01X104783Y112200D02*
Y117200D01*
X106303D01*
X106810Y116950D01*
X107190Y116367D01*
X107317Y115700D01*
X107190Y115033D01*
X106873Y114533D01*
X106303Y114283D01*
X104783D01*
G01X111150Y112200D02*
Y117200D01*
X110390Y116200D01*
G01Y112200D02*
X111910D01*
G01X133633Y25450D02*
Y30450D01*
X135217D01*
X135723Y30200D01*
X136040Y29867D01*
X136167Y29200D01*
X136040Y28533D01*
X135660Y28117D01*
X135217Y27867D01*
X133633D01*
G01X135217D02*
X136167Y25450D01*
G01X138797Y27533D02*
X139240Y28117D01*
X139620Y28450D01*
X140127Y28617D01*
X140570Y28450D01*
X140887Y28117D01*
X141140Y27617D01*
X141203Y27033D01*
X141140Y26533D01*
X140887Y26033D01*
X140507Y25617D01*
X140063Y25450D01*
X139557Y25617D01*
X139113Y26117D01*
X138860Y26867D01*
X138797Y27700D01*
X138923Y28783D01*
X139113Y29367D01*
X139430Y29950D01*
X139873Y30367D01*
X140317Y30450D01*
X140760Y30283D01*
X141077Y29867D01*
G01X143250Y70000D02*
Y110000D01*
X156750D01*
Y70000D01*
X143250D01*
G01X145000Y110000D02*
Y70000D01*
G01X143640Y116000D02*
X145160D01*
G01X144400D02*
Y111000D01*
G01X143640D02*
X145160D01*
G01X150893Y115583D02*
X150513Y115833D01*
X150070Y116000D01*
X149563D01*
X148993Y115750D01*
X148550Y115333D01*
X148233Y114833D01*
X147980Y114000D01*
X147917Y113250D01*
X148043Y112500D01*
X148233Y112000D01*
X148613Y111500D01*
X149057Y111167D01*
X149500Y111000D01*
X149943D01*
X150387Y111167D01*
X150767Y111417D01*
X151083Y111750D01*
G01X154600Y111000D02*
Y116000D01*
X153840Y115000D01*
G01Y111000D02*
X155360D01*
G01X147750Y107500D02*
G03I-1000J0D01*
G01X158070Y50667D02*
X158577Y50250D01*
X159147Y50000D01*
X159653D01*
X160160Y50250D01*
X160540Y50667D01*
X160730Y51250D01*
X160603Y51833D01*
X160287Y52333D01*
X159717Y52667D01*
X158957Y52833D01*
X158513Y53167D01*
X158323Y53750D01*
X158450Y54333D01*
X158767Y54750D01*
X159210Y55000D01*
X159653D01*
X160097Y54833D01*
X160477Y54417D01*
G01X164500Y50000D02*
Y55000D01*
X163740Y54000D01*
G01Y50000D02*
X165260D01*
G01X193250Y70000D02*
Y110000D01*
X206750D01*
Y70000D01*
X193250D01*
G01X195000Y110000D02*
Y70000D01*
G01X193640Y116000D02*
X195160D01*
G01X194400D02*
Y111000D01*
G01X193640D02*
X195160D01*
G01X200893Y115583D02*
X200513Y115833D01*
X200070Y116000D01*
X199563D01*
X198993Y115750D01*
X198550Y115333D01*
X198233Y114833D01*
X197980Y114000D01*
X197917Y113250D01*
X198043Y112500D01*
X198233Y112000D01*
X198613Y111500D01*
X199057Y111167D01*
X199500Y111000D01*
X199943D01*
X200387Y111167D01*
X200767Y111417D01*
X201083Y111750D01*
G01X203397Y115167D02*
X203777Y115667D01*
X204220Y115917D01*
X204727Y116000D01*
X205360Y115833D01*
X205803Y115417D01*
X205930Y114917D01*
X205867Y114417D01*
X205613Y114000D01*
X204347Y113167D01*
X203777Y112583D01*
X203397Y111750D01*
X203270Y111000D01*
X205930D01*
G01X197750Y107500D02*
G03I-1000J0D01*
G01X227683Y15300D02*
Y20300D01*
X229267D01*
X229773Y20050D01*
X230090Y19717D01*
X230217Y19050D01*
X230090Y18383D01*
X229710Y17967D01*
X229267Y17717D01*
X227683D01*
G01X229267D02*
X230217Y15300D01*
G01X232657Y16050D02*
X233037Y15633D01*
X233480Y15383D01*
X234050Y15300D01*
X234620Y15467D01*
X235063Y15800D01*
X235380Y16383D01*
X235443Y17050D01*
X235317Y17717D01*
X235000Y18133D01*
X234557Y18467D01*
X234113Y18550D01*
X233670Y18467D01*
X233100Y18133D01*
X233290Y20300D01*
X235000D01*
G01Y155000D02*
Y165000D01*
X255000D01*
Y155000D01*
X235000D01*
G01X266307Y48000D02*
Y53000D01*
X267573D01*
X268080Y52750D01*
X268460Y52417D01*
X268777Y51917D01*
X269030Y51333D01*
X269093Y50500D01*
X269030Y49667D01*
X268777Y49083D01*
X268460Y48583D01*
X268080Y48250D01*
X267573Y48000D01*
X266307D01*
G01X271723Y48583D02*
X272167Y48167D01*
X272673Y48000D01*
X273180Y48167D01*
X273623Y48667D01*
X273940Y49417D01*
X274067Y50167D01*
Y51083D01*
X273940Y51833D01*
X273623Y52500D01*
X273243Y52833D01*
X272800Y53000D01*
X272293Y52833D01*
X271913Y52500D01*
X271660Y52000D01*
X271533Y51333D01*
X271660Y50750D01*
X271977Y50167D01*
X272357Y49833D01*
X272800Y49750D01*
X273307Y49917D01*
X273687Y50333D01*
X274067Y51083D01*
G01X266307Y38000D02*
Y43000D01*
X267573D01*
X268080Y42750D01*
X268460Y42417D01*
X268777Y41917D01*
X269030Y41333D01*
X269093Y40500D01*
X269030Y39667D01*
X268777Y39083D01*
X268460Y38583D01*
X268080Y38250D01*
X267573Y38000D01*
X266307D01*
G01X272800D02*
Y43000D01*
X272040Y42000D01*
G01Y38000D02*
X273560D01*
G01X277900Y43000D02*
X277393Y42833D01*
X277013Y42417D01*
X276760Y41917D01*
X276570Y41250D01*
X276507Y40500D01*
X276570Y39750D01*
X276760Y39083D01*
X277013Y38583D01*
X277393Y38167D01*
X277900Y38000D01*
X278407Y38167D01*
X278787Y38583D01*
X279040Y39083D01*
X279230Y39750D01*
X279293Y40500D01*
X279230Y41250D01*
X279040Y41917D01*
X278787Y42417D01*
X278407Y42833D01*
X277900Y43000D01*
G01X266307Y78000D02*
Y83000D01*
X267573D01*
X268080Y82750D01*
X268460Y82417D01*
X268777Y81917D01*
X269030Y81333D01*
X269093Y80500D01*
X269030Y79667D01*
X268777Y79083D01*
X268460Y78583D01*
X268080Y78250D01*
X267573Y78000D01*
X266307D01*
G01X271597Y80083D02*
X272040Y80667D01*
X272420Y81000D01*
X272927Y81167D01*
X273370Y81000D01*
X273687Y80667D01*
X273940Y80167D01*
X274003Y79583D01*
X273940Y79083D01*
X273687Y78583D01*
X273307Y78167D01*
X272863Y78000D01*
X272357Y78167D01*
X271913Y78667D01*
X271660Y79417D01*
X271597Y80250D01*
X271723Y81333D01*
X271913Y81917D01*
X272230Y82500D01*
X272673Y82917D01*
X273117Y83000D01*
X273560Y82833D01*
X273877Y82417D01*
G01X266307Y68000D02*
Y73000D01*
X267573D01*
X268080Y72750D01*
X268460Y72417D01*
X268777Y71917D01*
X269030Y71333D01*
X269093Y70500D01*
X269030Y69667D01*
X268777Y69083D01*
X268460Y68583D01*
X268080Y68250D01*
X267573Y68000D01*
X266307D01*
G01X272673D02*
X272800Y69083D01*
X272990Y70000D01*
X273243Y70833D01*
X273560Y71750D01*
X274067Y73000D01*
X271533D01*
G01X266307Y58000D02*
Y63000D01*
X267573D01*
X268080Y62750D01*
X268460Y62417D01*
X268777Y61917D01*
X269030Y61333D01*
X269093Y60500D01*
X269030Y59667D01*
X268777Y59083D01*
X268460Y58583D01*
X268080Y58250D01*
X267573Y58000D01*
X266307D01*
G01X272800D02*
X273243Y58083D01*
X273750Y58333D01*
X274067Y58750D01*
X274193Y59333D01*
X274067Y59917D01*
X273687Y60417D01*
X273117Y60667D01*
X272483D01*
X272103Y60833D01*
X271787Y61250D01*
X271660Y61833D01*
X271850Y62417D01*
X272293Y62833D01*
X272800Y63000D01*
X273307Y62833D01*
X273750Y62417D01*
X273940Y61833D01*
X273813Y61250D01*
X273497Y60833D01*
X273117Y60667D01*
X272483D01*
X271913Y60417D01*
X271533Y59917D01*
X271407Y59333D01*
X271533Y58750D01*
X271850Y58333D01*
X272357Y58083D01*
X272800Y58000D01*
G01X266307Y108000D02*
Y113000D01*
X267573D01*
X268080Y112750D01*
X268460Y112417D01*
X268777Y111917D01*
X269030Y111333D01*
X269093Y110500D01*
X269030Y109667D01*
X268777Y109083D01*
X268460Y108583D01*
X268080Y108250D01*
X267573Y108000D01*
X266307D01*
G01X271407Y109000D02*
X271787Y108417D01*
X272293Y108083D01*
X272863Y108000D01*
X273370Y108083D01*
X273877Y108500D01*
X274193Y109000D01*
X274257Y109500D01*
X274130Y110083D01*
X273687Y110500D01*
X273243Y110667D01*
X272673D01*
G01X273243D02*
X273623Y110917D01*
X273940Y111333D01*
X274067Y111833D01*
X273940Y112333D01*
X273623Y112750D01*
X273053Y113000D01*
X272483Y112917D01*
X271913Y112583D01*
G01X266307Y98000D02*
Y103000D01*
X267573D01*
X268080Y102750D01*
X268460Y102417D01*
X268777Y101917D01*
X269030Y101333D01*
X269093Y100500D01*
X269030Y99667D01*
X268777Y99083D01*
X268460Y98583D01*
X268080Y98250D01*
X267573Y98000D01*
X266307D01*
G01X273560D02*
Y103000D01*
X271217Y99417D01*
X274383D01*
G01X266307Y88000D02*
Y93000D01*
X267573D01*
X268080Y92750D01*
X268460Y92417D01*
X268777Y91917D01*
X269030Y91333D01*
X269093Y90500D01*
X269030Y89667D01*
X268777Y89083D01*
X268460Y88583D01*
X268080Y88250D01*
X267573Y88000D01*
X266307D01*
G01X271407Y88750D02*
X271787Y88333D01*
X272230Y88083D01*
X272800Y88000D01*
X273370Y88167D01*
X273813Y88500D01*
X274130Y89083D01*
X274193Y89750D01*
X274067Y90417D01*
X273750Y90833D01*
X273307Y91167D01*
X272863Y91250D01*
X272420Y91167D01*
X271850Y90833D01*
X272040Y93000D01*
X273750D01*
G01X266307Y127800D02*
Y132800D01*
X267573D01*
X268080Y132550D01*
X268460Y132217D01*
X268777Y131717D01*
X269030Y131133D01*
X269093Y130300D01*
X269030Y129467D01*
X268777Y128883D01*
X268460Y128383D01*
X268080Y128050D01*
X267573Y127800D01*
X266307D01*
G01X272800D02*
Y132800D01*
X272040Y131800D01*
G01Y127800D02*
X273560D01*
G01X266307Y117900D02*
Y122900D01*
X267573D01*
X268080Y122650D01*
X268460Y122317D01*
X268777Y121817D01*
X269030Y121233D01*
X269093Y120400D01*
X269030Y119567D01*
X268777Y118983D01*
X268460Y118483D01*
X268080Y118150D01*
X267573Y117900D01*
X266307D01*
G01X271597Y122067D02*
X271977Y122567D01*
X272420Y122817D01*
X272927Y122900D01*
X273560Y122733D01*
X274003Y122317D01*
X274130Y121817D01*
X274067Y121317D01*
X273813Y120900D01*
X272547Y120067D01*
X271977Y119483D01*
X271597Y118650D01*
X271470Y117900D01*
X274130D01*
G01X240983Y168300D02*
X241300Y167800D01*
X241680Y167467D01*
X242123Y167300D01*
X242630Y167467D01*
X243010Y167800D01*
X243390Y168300D01*
X243517Y168967D01*
Y172300D01*
G01X247350Y167300D02*
Y172300D01*
X246590Y171300D01*
G01Y167300D02*
X248110D01*
G01X55080Y72580D02*
X69920D01*
G01X52810Y84010D02*
X52010Y80000D01*
G01D02*
X52810Y75990D01*
G01D02*
X55080Y72580D01*
G01D02*
X55160Y72500D01*
G01X62500Y90490D02*
X58490Y89690D01*
G01D02*
X55080Y87420D01*
G01D02*
X52810Y84010D01*
G01X69920Y72580D02*
X72190Y75990D01*
G01D02*
X72990Y80000D01*
G01D02*
X72190Y84010D01*
G01D02*
X69920Y87420D01*
G01D02*
X66510Y89690D01*
G01D02*
X62500Y90490D01*
G54D12*
G01X22500Y84500D02*
Y75500D01*
G01D02*
X44500D01*
G01Y84500D02*
X22500D01*
G01X26250Y104050D02*
Y124350D01*
G01X13750D02*
Y104050D01*
G01D02*
X26250D01*
G01Y124350D02*
X21100D01*
G01D02*
X20250Y125200D01*
G01D02*
X19400Y124350D01*
G01D02*
X13750D01*
G01X44500Y75500D02*
Y84500D01*
G01X46250Y104050D02*
Y124350D01*
G01X33750D02*
Y104050D01*
G01D02*
X46250D01*
G01X53750Y124350D02*
Y104050D01*
G01D02*
X66250D01*
G01X55500Y144500D02*
Y135500D01*
G01D02*
X77500D01*
G01X46250Y124350D02*
X41100D01*
G01D02*
X40250Y125200D01*
G01D02*
X39400Y124350D01*
G01D02*
X33750D01*
G01X61100D02*
X60250Y125200D01*
G01D02*
X59400Y124350D01*
G01D02*
X53750D01*
G01X77500Y144500D02*
X55500D01*
G01X86250Y104050D02*
Y124350D01*
G01X73750D02*
Y104050D01*
G01D02*
X86250D01*
G01X66250D02*
Y124350D01*
G01X77500Y135500D02*
Y144500D01*
G01X86250Y124350D02*
X81100D01*
G01D02*
X80250Y125200D01*
G01D02*
X79400Y124350D01*
G01D02*
X73750D01*
G01X66250D02*
X61100D01*
G01X145950Y46250D02*
X125650D01*
G01D02*
Y41100D01*
G01D02*
X124800Y40250D01*
G01D02*
X125650Y39400D01*
G01D02*
Y33750D01*
G01D02*
X145950D01*
G01D02*
Y46250D01*
G01X236250Y24050D02*
Y44350D01*
G01D02*
X231100D01*
G01D02*
X230250Y45200D01*
G01D02*
X229400Y44350D01*
G01D02*
X223750D01*
G01D02*
Y24050D01*
G01D02*
X236250D01*
G01X261400Y46000D02*
X246400D01*
G01D02*
Y54000D01*
G01X261400D02*
Y46000D01*
G01Y36000D02*
X246400D01*
G01D02*
Y44000D01*
G01D02*
X261400D01*
G01D02*
Y36000D01*
G01Y76000D02*
X246400D01*
G01D02*
Y84000D01*
G01X261400D02*
Y76000D01*
G01Y66000D02*
X246400D01*
G01D02*
Y74000D01*
G01D02*
X261400D01*
G01D02*
Y66000D01*
G01Y56000D02*
X246400D01*
G01D02*
Y64000D01*
G01D02*
X261400D01*
G01D02*
Y56000D01*
G01X246400Y54000D02*
X261400D01*
G01Y106000D02*
X246400D01*
G01D02*
Y114000D01*
G01X261400D02*
Y106000D01*
G01Y96000D02*
X246400D01*
G01D02*
Y104000D01*
G01D02*
X261400D01*
G01D02*
Y96000D01*
G01X246400Y84000D02*
X261400D01*
G01Y86000D02*
X246400D01*
G01D02*
Y94000D01*
G01D02*
X261400D01*
G01D02*
Y86000D01*
G01Y126000D02*
X246400D01*
G01D02*
Y134000D01*
G01D02*
X261400D01*
G01D02*
Y126000D01*
G01Y116000D02*
X246400D01*
G01D02*
Y124000D01*
G01D02*
X261400D01*
G01D02*
Y116000D01*
G01X246400Y114000D02*
X261400D01*
G54D13*
G01X71823Y33146D02*
G03I-394J0D01*
G01X154803Y40000D02*
G03I-394J0D01*
M02*
