G04 ================== begin FILE IDENTIFICATION RECORD ==================*
G04 Layout Name:  PROIECT FINAL TIE.brd*
G04 Film Name:    BOTTOM*
G04 File Format:  Gerber RS274X*
G04 File Origin:  Cadence Allegro 17.2-S025*
G04 Origin Date:  Sat Aug 26 03:07:58 2023*
G04 *
G04 Layer:  ETCH/BOTTOM*
G04 Layer:  PIN/BOTTOM*
G04 Layer:  VIA CLASS/BOTTOM*
G04 *
G04 Offset:    (0.00 0.00)*
G04 Mirror:    No*
G04 Mode:      Positive*
G04 Rotation:  0*
G04 FullContactRelief:  No*
G04 UndefLineWidth:     8.00*
G04 ================== end FILE IDENTIFICATION RECORD ====================*
%FSLAX25Y25*MOIN*%
%IR0*IPPOS*OFA0.00000B0.00000*MIA0B0*SFA1.00000B1.00000*%
%ADD16C,.024*%
%ADD14C,.06*%
%ADD11C,.05425*%
%ADD17C,.05543*%
%ADD12R,.05425X.05425*%
%ADD18R,.05543X.05543*%
%ADD15O,.04X.06*%
%ADD13R,.04X.06*%
%ADD10C,.136*%
%ADD19C,.138*%
%ADD20C,.02*%
%ADD21C,.036*%
G75*
%LPD*%
G75*
G54D10*
X14100Y14100D03*
Y165900D03*
G54D20*
G01X167500Y97500D02*
Y67000D01*
X165500Y65000D01*
X145000D01*
X120000Y90000D01*
G01X180000Y40000D02*
X175584Y44416D01*
Y53476D01*
X171391Y57669D01*
Y101109D01*
X170000Y102500D01*
G01X235000Y85000D02*
Y115092D01*
X226492Y123600D01*
X186291D01*
X181400Y118709D01*
Y98400D01*
X182300Y97500D01*
X185000D01*
G01X242500Y90000D02*
Y115309D01*
X229409Y128400D01*
X186282D01*
X176600Y118718D01*
Y98200D01*
X182300Y92500D01*
X185000D01*
G01X260000Y137500D02*
X265000D01*
X272500Y130000D01*
Y47500D01*
X270000Y45000D01*
X207500D01*
X202546Y49954D01*
X187454D01*
G01X227500Y80000D02*
X207500Y60000D01*
X190000D01*
G01X242500D02*
X237500Y55000D01*
X187500D01*
G01X225000Y120000D02*
X187500D01*
X185000Y117500D01*
Y107500D01*
G01Y102500D02*
X210940D01*
X233440Y80000D01*
X242500D01*
G54D11*
X57874Y45000D03*
G54D21*
G01D02*
X70374Y32500D01*
X92500D01*
X100000Y40000D01*
G01X80000Y100000D02*
Y140000D01*
G01X110000Y100000D02*
X80000D01*
G01X117500Y57500D02*
X114000D01*
X113954Y57546D01*
X102546D01*
X100000Y55000D01*
Y40000D01*
G01X117500Y57500D02*
X133400D01*
X141700Y49200D01*
G01X167500Y55000D02*
X147500D01*
X141700Y49200D01*
G01X185000Y72500D02*
X181100D01*
X177500Y68900D01*
Y57500D01*
X182525Y52475D01*
Y47475D01*
X185000Y45000D01*
G01X215000Y92500D02*
Y76100D01*
X211400Y72500D01*
X185000D01*
G54D12*
X57874Y35000D03*
G54D13*
X57500Y80000D03*
G54D14*
X90000Y40000D03*
X100000D03*
X110000Y100000D03*
X120000Y90000D03*
X100000D03*
X240000Y160000D03*
X250000D03*
G54D15*
X62500Y80000D03*
X67500D03*
G54D16*
X80000Y100000D03*
Y140000D03*
X117500Y57500D03*
X141700Y49200D03*
X167500Y55000D03*
X170000Y102500D03*
X167500Y97500D03*
X185000Y45000D03*
X187454Y49954D03*
X185000Y72500D03*
Y77500D03*
X190000Y60000D03*
X187500Y55000D03*
X185000Y87500D03*
Y107500D03*
Y82500D03*
Y97500D03*
Y102500D03*
Y92500D03*
X227500Y80000D03*
X215000Y92500D03*
X235000Y85000D03*
X225000Y120000D03*
X242500Y60000D03*
Y80000D03*
Y90000D03*
X260000Y137500D03*
G54D17*
X180000Y40000D03*
X189843D03*
G54D18*
X170157D03*
G54D19*
X285900Y165900D03*
M02*
